<?xml version="1.0" encoding="utf-8"?>
<!-- Generator: Adobe Illustrator 19.2.1, SVG Export Plug-In . SVG Version: 6.00 Build 0)  -->
<svg version="1.1" id="Layer_1" xmlns="http://www.w3.org/2000/svg" xmlns:xlink="http://www.w3.org/1999/xlink" x="0px" y="0px"
	 viewBox="0 0 32 32" enable-background="new 0 0 32 32" xml:space="preserve">
<g id="Layer_6" display="none">
	<rect x="-57.198" y="-1.333" display="inline" fill="#E2E2E2" width="415.531" height="194.734"/>
</g>
<g id="Style_1" display="none">
	<g display="inline">
		<path fill="#E02F2F" d="M16,0C7.163,0,0,7.163,0,16c0,8.836,7.163,16,16,16s16-7.164,16-16C32,7.163,24.837,0,16,0z"/>
		<path fill="none" stroke="#FF6666" stroke-width="0.5" stroke-miterlimit="10" d="M16,1.359C7.914,1.359,1.359,7.914,1.359,16
			S7.914,30.641,16,30.641S30.641,24.086,30.641,16S24.086,1.359,16,1.359z"/>
	</g>
	<path display="inline" fill="#FFFFFF" d="M21.705,22.647h2.942c0-8.434-6.861-15.3-15.294-15.3v2.934
		C16.163,10.281,21.705,15.829,21.705,22.647z M11.39,22.652c1.128,0,2.039-0.906,2.039-2.029c0-1.117-0.911-2.033-2.039-2.033
		c-1.123,0-2.036,0.916-2.036,2.033C9.353,21.746,10.266,22.652,11.39,22.652z M16.506,22.648L16.506,22.648h2.945
		c0-5.57-4.531-10.101-10.099-10.101v2.933c1.91,0,3.705,0.746,5.057,2.1C15.761,18.929,16.506,20.732,16.506,22.648z"/>
</g>
<g id="Style_1_copy" display="none">
	<polygon display="inline" fill="#E02F2F" points="22.739,6.879 9.864,0 -3.011,6.879 -3.011,25.121 9.864,32 22.739,25.121 	"/>
	<path display="inline" fill="#FFFFFF" d="M21.705,22.647h2.942c0-8.434-6.861-15.3-15.294-15.3v2.934
		C16.163,10.281,21.705,15.829,21.705,22.647z M11.39,22.652c1.128,0,2.039-0.906,2.039-2.029c0-1.117-0.911-2.033-2.039-2.033
		c-1.123,0-2.036,0.916-2.036,2.033C9.353,21.746,10.266,22.652,11.39,22.652z M16.506,22.648L16.506,22.648h2.945
		c0-5.57-4.531-10.101-10.099-10.101v2.933c1.91,0,3.705,0.746,5.057,2.1C15.761,18.929,16.506,20.732,16.506,22.648z"/>
</g>
<g id="Style_2" display="none">
	<g display="inline">
		<g>
			<path fill="#FFFFFF" d="M16,31.625c-8.615,0-15.625-7.01-15.625-15.625C0.375,7.384,7.385,0.375,16,0.375S31.625,7.384,31.625,16
				C31.625,24.615,24.615,31.625,16,31.625z"/>
			<path fill="#E5E5E5" d="M16,0.75c8.409,0,15.25,6.841,15.25,15.25S24.409,31.25,16,31.25S0.75,24.409,0.75,16S7.591,0.75,16,0.75
				 M16,0C7.163,0,0,7.163,0,16c0,8.836,7.163,16,16,16s16-7.164,16-16C32,7.163,24.837,0,16,0L16,0z"/>
		</g>
	</g>
	<path display="inline" fill="#333333" d="M21.705,22.647h2.942c0-8.434-6.861-15.3-15.294-15.3v2.934
		C16.163,10.281,21.705,15.829,21.705,22.647z M11.39,22.652c1.128,0,2.039-0.906,2.039-2.029c0-1.117-0.911-2.033-2.039-2.033
		c-1.123,0-2.036,0.916-2.036,2.033C9.353,21.746,10.266,22.652,11.39,22.652z M16.506,22.648L16.506,22.648h2.945
		c0-5.57-4.531-10.101-10.099-10.101v2.933c1.91,0,3.705,0.746,5.057,2.1C15.761,18.929,16.506,20.732,16.506,22.648z"/>
</g>
<g>
	<g>
		<path fill="#FFFFFF" d="M16,31.625c-8.615,0-15.625-7.01-15.625-15.625C0.375,7.384,7.385,0.375,16,0.375S31.625,7.384,31.625,16
			C31.625,24.615,24.615,31.625,16,31.625z"/>
		<path fill="#E5E5E5" d="M16,0.75c8.409,0,15.25,6.841,15.25,15.25S24.409,31.25,16,31.25S0.75,24.409,0.75,16S7.591,0.75,16,0.75
			 M16,0C7.163,0,0,7.163,0,16c0,8.836,7.163,16,16,16s16-7.164,16-16C32,7.163,24.837,0,16,0L16,0z"/>
	</g>
</g>
<g id="style_4_1_">
	<g>
		
			<rect x="21.425" y="17.524" transform="matrix(0.7879 -0.6158 0.6158 0.7879 -7.8033 18.273)" fill="#3A3A3A" width="2.4" height="5.88"/>
		<path fill="#3A3A3A" d="M22.513,24.284l-3.621-4.633c0,0-2.361-0.553-4.043-2.704c-1.681-2.151-1.647-4.576-1.647-4.576
			L9.581,7.738c0,0-3.431,4.915,1.951,11.801S22.513,24.284,22.513,24.284z"/>
		
			<rect x="12.113" y="5.612" transform="matrix(0.7879 -0.6158 0.6158 0.7879 -2.4428 10.0124)" fill="#3A3A3A" width="2.4" height="5.88"/>
	</g>
</g>
<g id="Style_2_copy" display="none">
	<g display="inline">
		<g>
			<path fill="#FFFFFF" d="M16,31.25C7.591,31.25,0.75,24.409,0.75,16S7.591,0.75,16,0.75S31.25,7.591,31.25,16
				S24.409,31.25,16,31.25z"/>
			<path fill="#FF0000" d="M16,1.5c7.995,0,14.5,6.505,14.5,14.5S23.995,30.5,16,30.5S1.5,23.995,1.5,16S8.005,1.5,16,1.5 M16,0
				C7.163,0,0,7.163,0,16c0,8.836,7.163,16,16,16s16-7.164,16-16C32,7.163,24.837,0,16,0L16,0z"/>
		</g>
	</g>
	<path display="inline" d="M21.705,22.647h2.942c0-8.434-6.861-15.3-15.294-15.3v2.934C16.163,10.281,21.705,15.829,21.705,22.647z
		 M11.39,22.652c1.128,0,2.039-0.906,2.039-2.029c0-1.117-0.911-2.033-2.039-2.033c-1.123,0-2.036,0.916-2.036,2.033
		C9.353,21.746,10.266,22.652,11.39,22.652z M16.506,22.648L16.506,22.648h2.945c0-5.57-4.531-10.101-10.099-10.101v2.933
		c1.91,0,3.705,0.746,5.057,2.1C15.761,18.929,16.506,20.732,16.506,22.648z"/>
</g>
<g id="Style_2_copy_2" display="none">
	<path display="inline" fill="#FFFFFF" d="M16,31.25C7.591,31.25,0.75,24.409,0.75,16S7.591,0.75,16,0.75S31.25,7.591,31.25,16
		S24.409,31.25,16,31.25z"/>
	<path display="inline" fill="#8AD5DD" d="M16,1.5c7.995,0,14.5,6.505,14.5,14.5S23.995,30.5,16,30.5S1.5,23.995,1.5,16
		S8.005,1.5,16,1.5 M16,0C7.163,0,0,7.163,0,16c0,8.836,7.163,16,16,16s16-7.164,16-16C32,7.163,24.837,0,16,0L16,0z"/>
	<path display="inline" fill="#333333" d="M21.705,22.647h2.942c0-8.434-6.861-15.3-15.294-15.3v2.934
		C16.163,10.281,21.705,15.829,21.705,22.647z M11.39,22.652c1.128,0,2.039-0.906,2.039-2.029c0-1.117-0.911-2.033-2.039-2.033
		c-1.123,0-2.036,0.916-2.036,2.033C9.353,21.746,10.266,22.652,11.39,22.652z M16.506,22.648L16.506,22.648h2.945
		c0-5.57-4.531-10.101-10.099-10.101v2.933c1.91,0,3.705,0.746,5.057,2.1C15.761,18.929,16.506,20.732,16.506,22.648z"/>
</g>
<g id="Style_3" display="none">
	<g display="inline">
		<g>
			<path fill="#FFFFFF" d="M16,31.625c-8.615,0-15.625-7.01-15.625-15.625C0.375,7.384,7.385,0.375,16,0.375S31.625,7.384,31.625,16
				C31.625,24.615,24.615,31.625,16,31.625z"/>
			<path fill="#E5E5E5" d="M16,0.75c8.409,0,15.25,6.841,15.25,15.25S24.409,31.25,16,31.25S0.75,24.409,0.75,16S7.591,0.75,16,0.75
				 M16,0C7.163,0,0,7.163,0,16c0,8.836,7.163,16,16,16s16-7.164,16-16C32,7.163,24.837,0,16,0L16,0z"/>
		</g>
	</g>
	<path display="inline" fill="#FF3878" d="M21.705,22.647h2.942c0-8.434-6.861-15.3-15.294-15.3v2.934
		C16.163,10.281,21.705,15.829,21.705,22.647z M11.39,22.652c1.128,0,2.039-0.906,2.039-2.029c0-1.117-0.911-2.033-2.039-2.033
		c-1.123,0-2.036,0.916-2.036,2.033C9.353,21.746,10.266,22.652,11.39,22.652z M16.506,22.648L16.506,22.648h2.945
		c0-5.57-4.531-10.101-10.099-10.101v2.933c1.91,0,3.705,0.746,5.057,2.1C15.761,18.929,16.506,20.732,16.506,22.648z"/>
</g>
<g id="Style_3_copy_2" display="none">
	<path display="inline" fill="#F2B851" d="M25.845,32H32C32,14.354,17.645-0.011,0.001-0.011v6.138
		C14.248,6.126,25.845,17.735,25.845,32z M4.262,32.011c2.36,0,4.267-1.896,4.267-4.246c0-2.337-1.907-4.254-4.267-4.254
		c-2.35,0-4.26,1.917-4.26,4.254C0,30.115,1.91,32.011,4.262,32.011z M14.967,32.002L14.967,32.002h6.162
		c0-11.654-9.481-21.134-21.129-21.134v6.136c3.995,0,7.753,1.562,10.581,4.393C13.407,24.219,14.967,27.993,14.967,32.002z"/>
</g>
<g id="Style_3_copy" display="none">
	<g display="inline">
		<g>
			<path fill="#FFFFFF" d="M16,31.625c-8.615,0-15.625-7.01-15.625-15.625C0.375,7.384,7.385,0.375,16,0.375S31.625,7.384,31.625,16
				C31.625,24.615,24.615,31.625,16,31.625z"/>
			<path fill="#E5E5E5" d="M16,0.75c8.409,0,15.25,6.841,15.25,15.25S24.409,31.25,16,31.25S0.75,24.409,0.75,16S7.591,0.75,16,0.75
				 M16,0C7.163,0,0,7.163,0,16c0,8.836,7.163,16,16,16s16-7.164,16-16C32,7.163,24.837,0,16,0L16,0z"/>
		</g>
	</g>
	<path display="inline" fill="#0BA4E0" d="M21.705,22.647h2.942c0-8.434-6.861-15.3-15.294-15.3v2.934
		C16.163,10.281,21.705,15.829,21.705,22.647z M11.39,22.652c1.128,0,2.039-0.906,2.039-2.029c0-1.117-0.911-2.033-2.039-2.033
		c-1.123,0-2.036,0.916-2.036,2.033C9.353,21.746,10.266,22.652,11.39,22.652z M16.506,22.648L16.506,22.648h2.945
		c0-5.57-4.531-10.101-10.099-10.101v2.933c1.91,0,3.705,0.746,5.057,2.1C15.761,18.929,16.506,20.732,16.506,22.648z"/>
</g>
<g id="Style_3_copy_3" display="none">
</g>
<g id="Style_3_copy_4" display="none">
</g>
</svg>
