<?xml version="1.0" encoding="utf-8"?>
<!-- Generator: Adobe Illustrator 19.2.1, SVG Export Plug-In . SVG Version: 6.00 Build 0)  -->
<svg version="1.1" xmlns="http://www.w3.org/2000/svg" xmlns:xlink="http://www.w3.org/1999/xlink" x="0px" y="0px"
	 viewBox="0 0 64 64" enable-background="new 0 0 64 64" xml:space="preserve">
<g id="Layer_4_copy_8" display="none">
	<polygon display="inline" points="32,24.588 24.33,37.873 30,37.873 30,52.016 34,52.016 34,37.873 39.67,37.873 	"/>
	<rect x="18.888" y="14.286" display="inline" width="26.224" height="4"/>
</g>
<g id="Layer_4_copy_9" display="none">
	<g display="inline">
		<g>
			<g>
				<path fill="#333333" d="M30.637,3.098c-17.673,0-32,14.327-32,32c0,17.673,14.327,32,32,32s32-14.327,32-32
					C62.637,17.425,48.31,3.098,30.637,3.098z"/>
			</g>
		</g>
		<path fill="#FFFFFF" d="M42.479,24.104v16.105H29.537l-4.678,4.026v-4.026h-6.064V24.104H42.479 M46.479,20.104h-4H18.795h-4v4
			v16.105v4h4h2.064v0.026v8.72l6.609-5.688l3.553-3.058h11.458h4v-4V24.104V20.104L46.479,20.104z"/>
	</g>
</g>
<g id="Layer_3">
	<g>
		<g>
			<path fill="#FFFFFF" d="M32.001,63.251c-17.23,0-31.25-14.02-31.25-31.25s14.02-31.25,31.25-31.25s31.25,14.02,31.25,31.25
				S49.231,63.251,32.001,63.251z"/>
			<path fill="#E5E5E5" d="M32,1.5c16.818,0,30.5,13.682,30.5,30.5S48.818,62.5,32,62.5S1.5,48.818,1.5,32S15.182,1.5,32,1.5 M32,0
				C14.327,0,0,14.327,0,32c0,17.673,14.327,32,32,32s32-14.327,32-32C64,14.327,49.673,0,32,0L32,0z"/>
		</g>
	</g>
	<g>
		<g id="Outline_Filled_3_">
			<g>
				<path fill="#333333" d="M30.488,31.657c-0.96-0.889-2.027-2.135-2.49-3.239c-0.071-0.142-0.213-0.499,0-0.783
					c0.426-0.57,0.497-0.605,0.96-1.138c0.321-0.392,0.568-0.747,0.463-1.067l-1.601-4.164c-0.142-0.284-0.568-0.321-1.067-0.355
					c-0.426,0-0.889,0-1.209,0.071c-0.712,0.25-2.169,2.171-2.348,3.559c-0.392,3.023,2.348,7.045,5.085,9.537
					c2.739,2.526,6.972,4.911,9.959,4.235c1.388-0.321,3.165-1.922,3.307-2.668c0.071-0.321,0.037-0.781-0.037-1.209
					c-0.034-0.497-0.142-0.854-0.428-0.996l-3.626-1.674c-0.321-0.179-0.641-0.037-0.96,0.357c-0.392,0.534-0.57,0.747-1.031,1.317
					c-0.25,0.321-0.426,0.534-0.71,0.568c-0.321,0.071-0.747-0.108-0.818-0.108C32.799,33.507,31.485,32.545,30.488,31.657
					L30.488,31.657z M18.539,44.432l2.064-5.231c-2.277-2.634-3.662-6.085-3.662-9.858c0-8.326,6.757-15.052,15.08-15.052
					c8.321,0,15.044,6.727,15.044,15.052c0,8.328-6.722,15.087-15.044,15.087c-3.344,0-6.402-1.067-8.891-2.918L18.539,44.432z
					 M16.013,39.306l-2.845,11.388l10.172-4.626c2.597,1.351,5.547,2.135,8.678,2.135c10.385,0,18.814-8.433,18.814-18.859
					c0-10.389-8.429-18.822-18.814-18.822c-10.421,0-18.85,8.433-18.85,18.822C13.168,33.008,14.235,36.425,16.013,39.306
					L16.013,39.306z"/>
			</g>
		</g>
	</g>
</g>
</svg>
